<?xml version="1.0" encoding="utf-8"?>
<!-- Generator: Adobe Illustrator 21.1.0, SVG Export Plug-In . SVG Version: 6.00 Build 0)  -->
<svg version="1.1" id="Слой_1" xmlns="http://www.w3.org/2000/svg" xmlns:xlink="http://www.w3.org/1999/xlink" x="0px" y="0px"
	 viewBox="0 0 150.3 47.4" style="enable-background:new 0 0 150.3 47.4;" xml:space="preserve">
<title>Безымянный-1</title>
<path d="M62.6,13.6h2.2v9.8h-1.6l-3.8-5.3v5.3h-2.2v-9.8h1.7l3.8,5.3L62.6,13.6z"/>
<path d="M68.8,21.3h3.9v2.2h-6.2v-9.8h6.1v2.2h-3.9v1.6h3.5v2.1h-3.5L68.8,21.3z"/>
<path d="M75.9,23.4l-2.7-9.8h2.4l1.7,6.9l1.9-6.9H81l1.9,6.9l1.7-6.9h2.4l-2.7,9.8h-2.6l-1.6-5.8l-1.6,5.8L75.9,23.4z"/>
<path d="M93.6,21.3h3.9v2.2h-6.2v-9.8h6.1v2.2h-3.9v1.6h3.6v2.1h-3.5L93.6,21.3z"/>
<path d="M104,23.4l-1.9-3.2h-1.1v3.2h-2.2v-9.8h3.9c1.9,0,3.4,1.5,3.4,3.3c0,0,0,0,0,0c0,0.6-0.2,1.2-0.5,1.7
	c-0.3,0.5-0.8,0.9-1.3,1.2l2.1,3.6H104z M101.1,15.7v2.5h1.7c0.3,0,0.6-0.1,0.8-0.4c0.4-0.5,0.4-1.3,0-1.8c-0.2-0.2-0.5-0.4-0.8-0.4
	L101.1,15.7z"/>
<path d="M113.7,23.4l-0.5-1.5h-3.6l-0.5,1.5h-2.4l3.3-9.8h2.9l3.3,9.8H113.7z M110.2,19.8h2.3l-1.1-3.6L110.2,19.8z"/>
<path d="M66.3,33v0.8c0.1,1.3-0.4,2.6-1.4,3.5c-0.9,0.9-2.2,1.4-3.5,1.3c-1.4,0-2.8-0.5-3.8-1.5c-1-0.9-1.5-2.2-1.5-3.6
	c0-1.4,0.5-2.7,1.5-3.6c1-1,2.3-1.5,3.6-1.5c0.9,0,1.7,0.2,2.5,0.6c0.7,0.4,1.3,0.9,1.8,1.6l-1.9,1.1c-0.2-0.4-0.6-0.7-1-0.8
	c-0.4-0.2-0.9-0.3-1.4-0.3c-0.8,0-1.5,0.3-2.1,0.8c-0.5,0.6-0.8,1.3-0.8,2.1c0,0.8,0.3,1.5,0.8,2.1c0.6,0.6,1.4,0.8,2.2,0.8
	c1.1,0.1,2.1-0.5,2.5-1.5h-2.6v-2L66.3,33z"/>
<path d="M71.3,28.6c0.9,0,1.8,0.3,2.4,1c1.3,1.3,1.3,3.4,0,4.7c0,0,0,0,0,0c-0.6,0.7-1.5,1-2.4,1h-1.5v3.1h-2.2v-9.8L71.3,28.6z
	 M71.3,33.3c0.3,0,0.6-0.1,0.9-0.4c0.4-0.5,0.4-1.3,0-1.8c-0.2-0.2-0.5-0.4-0.9-0.4h-1.5v2.5L71.3,33.3z"/>
<path d="M79,38.6c-0.9,0-1.7-0.2-2.5-0.6c-0.7-0.4-1.2-1-1.4-1.8l1.9-1.1c0.3,0.9,1.1,1.4,2.1,1.4c0.9,0,1.3-0.3,1.3-0.8
	c0-0.3-0.2-0.6-0.4-0.7c-0.5-0.2-1-0.4-1.6-0.6c-0.4-0.1-0.7-0.2-1.1-0.4c-0.3-0.1-0.6-0.3-0.9-0.5c-0.3-0.2-0.5-0.5-0.7-0.9
	c-0.2-0.4-0.2-0.8-0.2-1.2c0-0.8,0.3-1.6,1-2.2c0.7-0.5,1.5-0.8,2.3-0.8c0.7,0,1.5,0.2,2.1,0.6c0.6,0.4,1.1,1,1.5,1.6l-1.9,1.1
	c-0.1-0.3-0.4-0.6-0.7-0.9c-0.3-0.2-0.6-0.3-1-0.3c-0.3,0-0.6,0.1-0.8,0.2c-0.2,0.1-0.3,0.3-0.3,0.5c0,0.3,0.1,0.5,0.3,0.6
	c0.4,0.3,0.9,0.5,1.4,0.6l0.9,0.3c0.3,0.1,0.6,0.2,0.8,0.4c0.3,0.1,0.5,0.3,0.8,0.5c0.2,0.2,0.3,0.5,0.5,0.8
	c0.5,1.2,0.1,2.5-0.8,3.3C80.9,38.4,80,38.7,79,38.6z"/>
<path d="M91.9,38.6c-2.8,0.1-5.2-2.1-5.3-4.9c-0.1-2.8,2.1-5.2,4.9-5.3c0.2,0,0.3,0,0.5,0c0.9,0,1.7,0.2,2.4,0.6
	c0.7,0.4,1.3,1,1.8,1.7l-1.9,1.1c-0.2-0.4-0.5-0.7-0.9-0.9c-0.4-0.2-0.9-0.3-1.3-0.3c-0.8,0-1.5,0.3-2.1,0.8c-1,1.2-1,3,0,4.2
	c0.6,0.5,1.3,0.8,2.1,0.8c0.5,0,0.9-0.1,1.4-0.3c0.4-0.2,0.7-0.5,0.9-0.9l2,1.1c-0.4,0.7-1,1.3-1.8,1.7
	C93.7,38.4,92.8,38.6,91.9,38.6z"/>
<path d="M105.3,37.2c-2,2-5.3,2.1-7.3,0.1c-2-2-2.1-5.3-0.1-7.3c2-2,5.3-2.1,7.3-0.1c1,1,1.5,2.3,1.5,3.7
	C106.8,34.9,106.3,36.2,105.3,37.2z M99.7,35.6c1.1,1.1,2.9,1.1,4.1,0c1.1-1.2,1.1-3,0-4.2c-1.1-1.1-2.9-1.1-4.1,0
	C98.6,32.6,98.6,34.5,99.7,35.6z"/>
<path d="M113.5,28.6h2.2v9.8h-1.7l-3.8-5.3v5.3h-2.2v-9.8h1.7l3.8,5.3V28.6z"/>
<path d="M124,28.6v2.2h-2.5v7.6h-2.2v-7.6h-2.5v-2.2H124z"/>
<path d="M130.2,38.4l-1.9-3.2h-1.1v3.2H125v-9.8h3.9c1.9,0,3.4,1.5,3.4,3.3c0,0,0,0,0,0c0,0.6-0.2,1.2-0.5,1.7
	c-0.3,0.5-0.8,0.9-1.3,1.2l2.1,3.6H130.2z M127.3,30.7v2.5h1.7c0.3,0,0.6-0.1,0.8-0.4c0.4-0.5,0.4-1.3,0-1.8
	c-0.2-0.2-0.5-0.4-0.8-0.4L127.3,30.7z"/>
<path d="M141.8,37.2c-2,2-5.3,2.1-7.3,0.1c-2-2-2.1-5.3-0.1-7.3c2-2,5.3-2.1,7.3-0.1c1,1,1.5,2.3,1.5,3.7
	C143.3,34.9,142.8,36.2,141.8,37.2z M136.1,35.6c1.1,1.1,2.9,1.1,4.1,0c1.1-1.2,1.1-3,0-4.2c-1.1-1.1-2.9-1.1-4.1,0
	C135,32.6,135,34.5,136.1,35.6z"/>
<path d="M146.8,36.3h3.5v2.2h-5.7v-9.8h2.2V36.3z"/>
<g transform="translate(0.000000,982.000000) scale(0.100000,-0.100000)">
	<path d="M344,9720.3l-59.7-59.7l35.2-35.2l35.2-35.2l59.7,59.7l59.7,59.7l-35.2,35.2l-35.2,35.2L344,9720.3z M411.8,9745.1
		c-2.7-2.7-5.8-5.7-6.8-6.6c-1.9-1.6-1.9-1.6-2.9-1c-0.5,0.4-3.5,3.1-6.6,6.2l-5.6,5.5l7,7l7,7l6.5-6.5l6.6-6.6L411.8,9745.1z
		 M430.6,9736.2l5.1-5.1l-7-7l-6.9-6.9l-5.2,5.2l-5.2,5.2l6.8,6.8c3.7,3.8,6.9,6.8,7,6.8C425.3,9741.4,427.8,9739.1,430.6,9736.2z
		 M388.5,9734.3l6.3-6.2l-6.9-6.9l-7-7l-6.5,6.6l-6.6,6.6l6.7,6.6c3.7,3.7,6.9,6.6,7.2,6.6C382.1,9740.5,385.1,9737.7,388.5,9734.3z
		 M450.9,9715.8l6.3-6.2l-6.9-6.9l-7-7l-6.5,6.6l-6.6,6.6l6.7,6.6c3.7,3.7,6.9,6.6,7.2,6.6C444.5,9722,447.5,9719.2,450.9,9715.8z
		 M409.1,9713.8l4.6-4.7l-7-7l-6.9-6.9l-5.3,5.3l-5.2,5.2l6.9,6.7c5.6,5.5,7,6.7,7.6,6.4C404.2,9718.6,406.6,9716.4,409.1,9713.8z
		 M367.3,9710.9l5.2-5.2l-7-7l-6.9-6.9l-6.6,6.6l-6.6,6.6l6.8,6.8l6.9,6.8l1.5-1.2C361.5,9716.6,364.5,9713.7,367.3,9710.9z
		 M428.4,9680.7l-7-7l-6.5,6.5l-6.6,6.6l6.9,6.9l7,7l6.5-6.5l6.6-6.6L428.4,9680.7z M386.5,9691.8l5-5l-6.9-7l-7-6.9l-5.2,5.3
		l-5.2,5.2l6.7,6.6c3.7,3.6,7,6.6,7.2,6.6C381.3,9696.7,383.7,9694.5,386.5,9691.8z M343.8,9689.6l6.3-6.2l-6.7-6.8l-6.8-6.8
		l-6.5,6.6l-6.6,6.6l6.5,6.4c3.6,3.5,6.7,6.4,7,6.4C337.3,9695.9,340.4,9693,343.8,9689.6z M406.5,9671.7l6.4-6.4l-7-7l-6.9-6.9
		l-6.5,6.6l-6.6,6.5l6.8,6.8c3.7,3.7,6.9,6.8,7,6.8C400,9678.1,403,9675.3,406.5,9671.7z M321.3,9654.5l-7-7l-6.5,6.5l-6.6,6.6
		l6.9,6.9l7,7l6.5-6.5l6.6-6.6L321.3,9654.5z M364.8,9668.7l4.2-4.3l-6.8-6.8l-6.7-6.7l-5.3,5.3l-5.2,5.2l6.7,6.6l6.7,6.5l1.1-0.8
		C360.1,9673.3,362.5,9671.1,364.8,9668.7z M383.9,9636.2l-6.8-6.8l-6.5,6.5l-6.6,6.6l6.7,6.7l6.8,6.8l6.5-6.5l6.6-6.6L383.9,9636.2
		z M342,9647.6l5.1-5.1l-7-7l-6.9-6.9l-5.2,5.2l-5.2,5.2l6.8,6.8c3.7,3.8,6.9,6.8,7,6.8C336.8,9652.8,339.2,9650.5,342,9647.6z
		 M362.3,9627.3l6.4-6.2l-6.9-7l-7-7l-6.5,6.6l-6.6,6.6l6.7,6.6c3.7,3.7,6.9,6.6,7.1,6.6S358.8,9630.7,362.3,9627.3z"/>
	<path d="M266.9,9664.6c-1-0.8-3.3-3-5.2-4.9l-3.4-3.3l-4.4,4.4l-4.4,4.4l-21-21c-11.6-11.6-21.1-21.2-21.1-21.5
		c0-0.2,1.9-2.3,4.2-4.6l4.2-4.2l-4.4-4.6c-2.7-2.8-4.4-4.9-4.4-5.4c0-1,94.7-95.9,95.5-95.6c0.2,0.1,2.4,3.9,4.8,8.4
		c8.1,15.7,15.7,25.6,26.2,34.2c7.3,6,13.2,9.8,24,15.4c4.1,2.1,6.4,3.5,6.5,4c0.1,0.5-13.4,14.3-44.1,45
		c-24.3,24.4-45.8,45.8-47.7,47.5l-3.5,3.2L266.9,9664.6z"/>
	<path d="M152.2,9528.5L92.7,9469l35.2-35.2l35.2-35.2l59.8,59.8l59.8,59.8l-35.1,34.9c-19.4,19.2-35.3,34.9-35.5,34.9
		C211.9,9588,184.9,9561.2,152.2,9528.5z M218.9,9564.8l6.4-6.2l-6.9-7l-7-7l-6.5,6.6l-6.6,6.6l6.7,6.6c3.7,3.7,6.8,6.6,7,6.6
		C212.3,9571.1,215.4,9568.2,218.9,9564.8z M239.3,9544.5l5-4.8l-6.9-7l-7-7l-5.3,5.3l-5.2,5.2l6.6,6.5c3.7,3.6,6.9,6.5,7.2,6.5
		C234,9549.3,236.5,9547.2,239.3,9544.5z M196,9529.2l-6.8-6.9l-6.1,6.2c-3.4,3.4-6.2,6.5-6.2,6.8c0,0.3,2.9,3.5,6.4,7.2l6.4,6.6
		l6.6-6.5l6.6-6.6L196,9529.2z M259.2,9524.7c3.4-3.4,6.2-6.3,6.2-6.6c0-0.2-3-3.4-6.7-7.1l-6.8-6.8l-6.5,6.5l-6.6,6.6l6.7,6.7
		c3.7,3.7,6.9,6.8,7.2,6.8C252.9,9530.8,255.9,9528,259.2,9524.7z M173.9,9507.2l-7-7l-6.3,6.3c-3.5,3.5-6.4,6.5-6.4,6.8
		c0,0.2,3,3.4,6.7,7.1l6.8,6.8l6.5-6.5l6.6-6.6L173.9,9507.2z M216.7,9522.2l5-5l-6.8-6.8l-6.8-6.8l-5.2,5.2l-5.2,5.3l6.7,6.6
		c3.7,3.7,6.9,6.6,7,6.6C211.5,9527.2,213.9,9524.9,216.7,9522.2z M236.7,9489.1c-3.7-3.6-6.8-6.6-7.1-6.6c-0.2,0-3.3,2.8-6.8,6.2
		l-6.3,6.2l6.8,6.9l6.8,6.8l6.6-6.6l6.6-6.5L236.7,9489.1z M194.6,9500.3l5.2-5.2l-6.7-6.7c-3.7-3.7-6.9-6.8-7-6.8
		c-0.2,0-2.6,2.3-5.4,5.1l-5.1,5.1l6.8,6.8c3.7,3.7,6.9,6.8,7,6.8C189.4,9505.4,191.8,9503.2,194.6,9500.3z M152.1,9498.2l6.4-6.4
		l-7-7l-6.9-6.9l-6.5,6.6l-6.6,6.5l6.8,6.8c3.7,3.7,6.9,6.8,7,6.8S148.5,9501.7,152.1,9498.2z M215.1,9479.9l6.2-6.2l-7-7l-6.9-6.9
		l-6.5,6.6l-6.6,6.6l6.7,6.6c3.7,3.7,7,6.6,7.2,6.6C208.6,9486.1,211.7,9483.3,215.1,9479.9z M170.5,9465.9l-6.9-6.9l-5,5
		c-2.8,2.8-5.1,5.2-5.1,5.4c0,0.2,3,3.4,6.7,7.1l6.8,6.8l5.2-5.2l5.2-5.2L170.5,9465.9z M127.2,9479c3.8-3.3,8.6-8.4,8.6-9.2
		c0-0.7-12.5-13.4-13.2-13.4c-0.5,0-6.4,5.2-10.4,9.3l-2.9,3l6.4,6.3C123.2,9482.6,123.1,9482.5,127.2,9479z M192.7,9457.6l6.3-6.3
		l-7-7l-6.9-6.9l-6.6,6.6l-6.6,6.6l6.8,6.7c3.7,3.7,7,6.7,7.2,6.7C186.1,9464,189.2,9461.1,192.7,9457.6z M150,9455.6l5.1-5.1l-7-7
		l-6.9-6.9l-5.2,5.2l-5.2,5.2l6.8,6.8c3.7,3.8,6.9,6.8,7,6.8S147.2,9458.5,150,9455.6z M170.4,9435.2l6.2-6.2l-6.9-6.9l-7-7
		l-2.9,2.8c-4.3,4.2-9.2,9.8-9.2,10.4c0,0.8,12.2,13.2,12.9,13.2C163.9,9441.4,167,9438.6,170.4,9435.2z"/>
	<path d="M394,9569.8c-6-0.2-8.7-0.5-12.9-1.4c-35.7-7.4-64.4-33.6-74.6-68.2c-3.2-10.7-4.6-23.8-3.7-35.1c0.4-6,1.2-11,1.6-10.6
		c0.1,0.1,0.6,1.4,1.1,2.8c5.3,15.2,47.9,62.4,80.7,89.7c13,10.7,24.6,18.8,29.1,20.3c1.2,0.4,2.3,0.8,2.4,1
		C418.9,9569.4,406.3,9570.2,394,9569.8z"/>
	<path d="M421,9563.7c-9.4-2.9-32-20.2-51.6-39.4l-4.5-4.4l4.9-6.1c2.7-3.3,6.2-7.6,7.6-9.4l2.7-3.3l6.8,7.4
		c21,22.6,34.7,40.5,38.3,50C427.1,9563.5,425.7,9565.1,421,9563.7z"/>
	<path d="M349.7,9504.6c-6.8-6.5-18.3-19.6-25.8-29.2c-12.2-15.6-17.8-27.1-13.9-28.5c1.9-0.7,9.4,2.8,16.8,7.7
		c7.6,5.1,23,17.8,36.4,30.1c3.6,3.3,6.8,6.5,7.2,7c0.7,1,0.7,1-1.5,3c-3.1,2.8-14.3,11.8-15.3,12.4
		C352.8,9507.5,352.4,9507.2,349.7,9504.6z"/>
	<path d="M379.9,9497.3c-1.3-0.7-3.8-3.2-4.5-4.4c-0.8-1.6-0.7-5.9,0.2-7.5c1.6-3,11.8-12.9,14.9-14.5c3.4-1.8,8.9,1,11,5.4
		c1.9,4,0.5,6.9-6.4,14c-6.6,6.8-7.8,7.5-11.5,7.5C382,9497.8,380.4,9497.6,379.9,9497.3z"/>
	<path d="M428.4,9487.8c-1.8-0.6-3.5-2-4.3-3.6c-0.4-0.8-1.1-4-1.6-7c-0.7-4.6-1.1-6.2-2.4-9c-3.7-8-10.7-14.2-18.8-16.8
		c-1.1-0.4-4.1-0.9-6.7-1.2c-5.3-0.7-6.6-1.2-8.2-3.3c-1.3-1.7-1.7-4.9-1-7.1c0.7-2.2,3.3-4.4,5.6-4.8c5-0.8,15.8,1.6,22.8,5.1
		c6.7,3.4,15.7,12.4,19.1,19.3c3,6.1,5,13.8,5.1,19.7c0,3.1-0.1,3.8-0.9,5.2C435.3,9486.9,431.1,9488.6,428.4,9487.8z"/>
	<path d="M454.4,9480.9c-1.9-0.5-3.6-1.5-4.8-2.9c-1.2-1.5-1.2-1.6-1.8-7.6c-0.5-5.4-1.5-9.5-3.7-15.1c-6.8-17.2-22.9-28.8-42-30.5
		c-2.5-0.2-5-0.6-5.7-0.8c-1.4-0.5-3.6-2.6-4.1-4.1c-1.3-3.3,0.2-7.5,3.2-9.1c1.7-0.9,2.2-1,6.8-1c5.7,0.1,10.5,1,17.1,3.1
		c24.4,8.2,42.3,31.4,43.6,56.6c0.2,5.2-0.1,6.9-1.8,8.9C459.4,9480.5,456.8,9481.5,454.4,9480.9z"/>
	<path d="M477.2,9472.3c-3.8-2-4.5-3.7-5.4-12.4c-0.7-6.9-1.6-10.9-3.4-16.2c-5.3-15-17.4-28.8-31.6-36c-7-3.5-15.2-5.8-24.4-6.7
		c-6-0.6-7.9-1-9.7-2.3c-2.3-1.6-3.1-6.9-1.6-9.5c0.4-0.7,1.4-1.8,2.3-2.4c1.5-1.2,1.6-1.2,6.8-1.1c16.1,0.1,33.5,6.4,46.7,17
		c17.1,13.6,27.7,33.2,30,55.2c1,9.3,0.1,12.1-4.3,14.2c-1.4,0.6-2.8,1.2-3.1,1.2C479.2,9473.2,478.2,9472.8,477.2,9472.3z"/>
</g>
</svg>
